<svg xmlns="http://www.w3.org/2000/svg" xmlns:xlink="http://www.w3.org/1999/xlink" version="1.2" viewBox="0 0 393.44 84" height="112" width="524.58">
  <defs>
    <symbol id="a" overflow="visible">
      <path d="M34.08-43.69H5.48l-2.1 8.61h.3c1.8-4.05 5.37-8.3 11.62-8.3h12.72L2.19-.3V0H31.2l2.13-8.6h-.31C31.2-4.5 27.64-.32 21.34-.32H8.17l25.9-43.06zm0 0"/>
    </symbol>
    <symbol id="b" overflow="visible">
      <path d="M2.25-14.3c0-.12 0 .13 0 0zm29.33-6.48c-1.19-7.11-6.8-11.17-14.17-10.61-8.68.62-15.79 7.42-15.16 17.1C3-4 11.55 1.11 20.35.55c4.74-.31 7.54-2 9.8-3.94v-.68C27.76-1.75 24.34.25 20.34.3 13.66.5 8.6-5.19 7.8-14.49a26.1 26.1 0 01.25-6.3zM17.4-31.14c6.37.12 8.37 5 8.86 10.1H8.1c1.12-5.85 4.5-10.16 9.3-10.1zm0 0"/>
    </symbol>
    <symbol id="c" overflow="visible">
      <path d="M21.03-31.4c-2.37.26-7.3 3.82-8.86 9.5.06-5.74.5-8.3 1.06-8.62v-.3H3.13v.3c3.54 0 3.92 2.25 3.92 6.86v16.49c0 4.54-.38 6.86-3.92 6.86V0h12.96v-.31c-3.54 0-3.86-2.31-3.92-6.86l.06-14.05c.88-3.44 3.43-7.1 5.61-7.73 2.32-.7 2.32 1.3 3.88 2.3 1.44.93 3.62.26 3.69-1.87.06-2-1.88-3.18-4.38-2.87zm0 0"/>
    </symbol>
    <symbol id="d" overflow="visible">
      <path d="M17.72-31.4c-9.3.63-15.78 7.93-15.22 17.48C3.06-4.25 11.48 1.44 20.53.56 29.4-.25 34.9-8.1 34.58-16.78c-.31-9.42-8.06-15.24-16.86-14.61zM20.53.32c-6.8.88-11.86-4.81-12.6-14.6-.7-9.55 3-16.29 9.79-16.85 6.44-.5 10.86 6.86 11.36 14.6C29.64-8.16 26.33-.5 20.53.32zm0 0"/>
    </symbol>
    <symbol id="e" overflow="visible">
      <path d="M36.88-8.67C35.2-12.67 23.4-43.7 23.4-43.7h-.57L9.67-9.99C7.23-3.74 4.31-1 .31-.3V0h13.3v-.31c-4.19 0-4.69-6.61-2.75-11.92.19-.5.94-2.44 2-5.11h14.97c1.94 5.04 3.69 9.6 4.31 11.3C33.83-1.5 33.4-.32 30.4-.32V0h13.73v-.31c-3.87 0-5.62-4.38-7.24-8.36zm-23.9-8.99c2.07-5.3 5.18-13.3 7.43-19.03.12.3 4 10.36 7.3 19.03zm0 0"/>
    </symbol>
    <symbol id="f" overflow="visible">
      <path d="M12.23-7.17v-29.1c0-6.23.44-9.04 1.07-9.35v-.32H3.12v.31c3.55 0 3.93 2.26 3.93 6.82v31.64c0 4.54-.38 6.86-3.92 6.86V0h13.03v-.31c-3.55 0-3.93-2.31-3.93-6.86zm0 0"/>
    </symbol>
    <symbol id="g" overflow="visible">
      <path d="M21.28-31.4c-4.44 0-7.42 2.57-8.98 5.68.18-3.1.56-4.6 1-4.8v-.3H3.12v.3c3.55 0 3.93 2.25 3.93 6.86V5.13c0 4.54-.38 6.8-3.92 6.8v.3h13.03v-.3c-3.55 0-3.93-2.26-3.93-6.8V-5.3c1.5 3.17 4.55 5.92 9.05 5.92 6.8 0 13.74-5 13.74-16.04 0-11.03-6.94-15.97-13.74-15.97zM20.1.2c-2.75 0-6.48-2.31-7.86-6.24v-15.1c0-1.44 0-2.7.07-3.82 1.43-3.8 5.1-5.98 7.8-5.98 6.04 0 9.8 5.3 9.8 15.53 0 10.3-3.76 15.6-9.8 15.6zm0 0"/>
    </symbol>
    <symbol id="h" overflow="visible">
      <path d="M32.14-7.17v-14.3c0-7.42-4.5-9.98-10.67-9.98-4.56 0-7.74 2.75-9.24 5.86v-10.68c0-6.23.44-9.04 1.07-9.35v-.32H3.12v.31c3.55 0 3.93 2.26 3.93 6.82v31.64c0 4.54-.38 6.86-3.92 6.86V0h13.03v-.31c-3.55 0-3.93-2.31-3.93-6.86v-17.67c1.38-3.86 5.3-6.18 7.99-6.18 6.05 0 6.8 5 6.8 9.24v14.6c0 4.55-.38 6.87-3.93 6.87V0h12.99v-.31c-3.56 0-3.88-2.31-3.94-6.86zm0 0"/>
    </symbol>
    <symbol id="i" overflow="visible">
      <path d="M27.95.13c-2.86 0-3.04-2.44-3.04-6.61v-15.74c0-6.23-4.38-9.17-10.24-9.17-6.69 0-8.94 3.69-9.98 5.98-1.07 2.25-.32 4.5 1.36 4.88a2.28 2.28 0 002.8-2.75c-.43-1.81-2.24-2.56-1.3-4.55.93-2.12 2.87-3.31 6.93-3.31 4.55 0 5.3 3.94 5.3 9.23v5.57c-.94.56-2 1.04-3.31 1.48-4.3 1.44-13.16 2.31-13.6 8.94C2.44.3 9.05 1.5 13.73.06c2.74-.87 4.68-2.87 6.11-5.42.5 5.05 3.75 5.92 7.3 5.92 1.25 0 2.13-.25 2.94-.75V-.5c-.38.25-1.38.63-2.13.63zM14.8-.64c-3.88 1.88-8.32-.12-7.63-6.73.63-5.62 6.56-6.19 9.55-7.31 1.31-.5 2.25-.94 3.06-1.42v9.3c0 .37 0 .74.06 1.12A11.75 11.75 0 0114.8-.63zm0 0"/>
    </symbol>
  </defs>
  <path d="M1 83h82V1H1zm0 0"/>
  <use height="100%" width="100%" y="254.1" x="727.92" xlink:href="#a" transform="translate(-619 -187.5)"/>
  <use height="100%" width="100%" y="254.1" x="762.01" xlink:href="#b" transform="translate(-619 -187.5)"/>
  <use height="100%" width="100%" y="254.1" x="792.67" xlink:href="#c" transform="translate(-619 -187.5)"/>
  <use height="100%" width="100%" y="254.1" x="816.69" xlink:href="#d" transform="translate(-619 -187.5)"/>
  <use height="100%" width="100%" y="254.1" x="849.95" xlink:href="#e" transform="translate(-619 -187.5)"/>
  <use height="100%" width="100%" y="254.1" x="893.73" xlink:href="#f" transform="translate(-619 -187.5)"/>
  <use height="100%" width="100%" y="254.1" x="909.57" xlink:href="#g" transform="translate(-619 -187.5)"/>
  <use height="100%" width="100%" y="254.1" x="944.91" xlink:href="#h" transform="translate(-619 -187.5)"/>
  <use height="100%" width="100%" y="254.1" x="981.36" xlink:href="#i" transform="translate(-619 -187.5)"/>
  <path d="M56.3 51.46V20.79h-3.9v5.82c-10-11.73-29.2-4.65-29.2 10.77v9.24c0 16.22 20.87 22.8 30.17 9.52a11.1 11.1 0 009.86 6.41h.07v-3.97a7.12 7.12 0 01-7-7.12m-28.35-.44a12.35 12.35 0 01-.79-4.4v-9.24c0-11.88 14.91-17.18 22.4-7.97L27.96 51.02m24.45-4.4C52.4 58.5 37.49 63.8 30 54.6l21.6-21.61c.54 1.44.8 2.86.8 4.4zm0 0" fill="#fff"/>
</svg>
